<svg xmlns="http://www.w3.org/2000/svg" width="512" height="512" viewBox="0 0 512 512">
    <defs>
        <linearGradient id="grad1" x1="0%" y1="0%" x2="100%" y2="100%">
            <stop offset="0%" style="stop-color:#075e54;stop-opacity:1" />
            <stop offset="100%" style="stop-color:#128c7e;stop-opacity:1" />
        </linearGradient>
    </defs>
    <rect x="0" y="0" width="512" height="512" rx="128" fill="url(#grad1)"/>
    <g transform="translate(96,96) scale(0.625)" fill="white">
        <path d="M256 32C132.3 32 32 132.3 32 256s100.3 224 224 224 224-100.3 224-224S379.7 32 256 32zm128 304c0 17.7-14.3 32-32 32H160c-17.7 0-32-14.3-32-32V176c0-17.7 14.3-32 32-32h192c17.7 0 32 14.3 32 32v160z"/>
        <path d="M160 144h192c17.7 0 32 14.3 32 32v160c0 17.7-14.3 32-32 32H160c-17.7 0-32-14.3-32-32V176c0-17.7 14.3-32 32-32zm32 72v80c0 8.8 7.2 16 16 16h96c8.8 0 16-7.2 16-16v-80c0-8.8-7.2-16-16-16h-96c-8.8 0-16 7.2-16 16z"/>
    </g>
</svg> 